<svg xmlns="http://www.w3.org/2000/svg" width="422" height="106" viewBox="0 0 422 106" fill="none"><g clip-path="url(#clip0_2321_961)"><path d="M155.8 44.5H141.4L154.8 21.6V19.1H135.6V23.2H148.7L135.3 46L135.2 46.1V48.5H155.8V44.5Z" fill="#120F29"></path><path d="M177.5 18.6C169 18.6 162.4 25.3 162.4 33.8C162.4 42.3 169 49 177.5 49C186 49 192.6 42.3 192.6 33.8C192.6 25.3 186 18.6 177.5 18.6ZM177.5 44.9C171.6 44.9 167.1 40.1 167.1 33.8C167.1 27.5 171.6 22.7 177.5 22.7C183.4 22.7 187.9 27.5 187.9 33.8C187.9 40.1 183.4 44.9 177.5 44.9Z" fill="#120F29"></path><path d="M221.4 27.7C221.4 21.8 216.2 19.2 211.3 19.2H202.5V48.6H207V36.4H209.6L218.3 48.6H223.9L214.7 36C219 35 221.6 31.9 221.6 27.7H221.4ZM206.9 32.2V23.1H211.1C214.5 23.1 216.7 25 216.7 27.7C216.7 30.4 212.7 32.2 210.3 32.2H207H206.9Z" fill="#120F29"></path><path d="M247.4 49C252.2 49 256.6 46.9 259.4 43.4V32H247.6V36H254.9V42C252.9 43.9 250.2 44.9 247.3 44.9C240.7 44.9 236.2 40.4 236.2 33.8C236.2 27.2 240.9 22.7 247.3 22.7C253.7 22.7 253.4 24.1 255.5 26.5L255.7 26.7L258.9 24.1L258.7 23.9C255.7 20.5 251.7 18.7 247.3 18.7C238.5 18.7 231.5 25.4 231.5 33.9C231.5 42.4 238.1 49.1 247.3 49.1L247.4 49Z" fill="#120F29"></path><path d="M271.2 48.5H289V44.5H275.6V35.4H289V31.3H275.6V23.2H289V19.1H271.2V48.5Z" fill="#120F29"></path><path d="M317.1 44.5H304.5V19.1H300.1V48.5H317.1V44.5Z" fill="#120F29"></path><path d="M338.1 18.6C329.6 18.6 323 25.3 323 33.8C323 42.3 329.6 49 338.1 49C346.6 49 353.2 42.3 353.2 33.8C353.2 25.3 346.6 18.6 338.1 18.6ZM338.1 44.9C332.2 44.9 327.7 40.1 327.7 33.8C327.7 27.5 332.2 22.7 338.1 22.7C344 22.7 348.5 27.5 348.5 33.8C348.5 40.1 344 44.9 338.1 44.9Z" fill="#120F29"></path><path d="M377.7 18.6C369.2 18.6 362.6 25.3 362.6 33.8C362.6 42.3 369.2 49 377.7 49C386.2 49 392.8 42.3 392.8 33.8C392.8 25.3 386.2 18.6 377.7 18.6ZM377.7 44.9C371.8 44.9 367.3 40.1 367.3 33.8C367.3 27.5 371.8 22.7 377.7 22.7C383.6 22.7 388.1 27.5 388.1 33.8C388.1 40.1 383.6 44.9 377.7 44.9Z" fill="#120F29"></path><path d="M413 30.8H412.8C409.8 29.7 407.1 28.7 407.1 26.5C407.1 24.3 409 22.7 412 22.7C415 22.7 416.5 23.6 417.9 24.9L418.1 25.1L420.9 21.8L420.7 21.6C418 19.6 415 18.6 411.6 18.6C405 18.6 402.6 22.8 402.6 26.8C402.6 30.8 406.6 33.5 410.9 35C414.1 36.1 417.2 37.2 417.2 40.2C417.2 43.2 414.3 44.9 411.5 44.9C408.7 44.9 406.5 44 404 41.5L403.8 41.3L400.6 44.3L400.8 44.5C403.9 47.5 407.2 48.9 411.4 48.9C418.5 48.9 421.8 44.1 421.8 39.7C421.8 35.3 416.4 32 412.9 30.7L413 30.8Z" fill="#120F29"></path><path d="M149.2 86.5L141 64.1H135.9L147.1 93.3V93.5H150.9L162.3 64.1H157.4L149.2 86.5Z" fill="#120F29"></path><path d="M181.3 64.1H177.5L166.1 93.5H171L173.2 87.4H185.1L187.4 93.5H192.5L181.3 64.3V64.1ZM174.7 83.3L179.2 71.1L183.7 83.3H174.7Z" fill="#120F29"></path><path d="M212 75.7H211.8C208.8 74.6 206.1 73.6 206.1 71.4C206.1 69.2 208 67.6 211 67.6C214 67.6 215.5 68.5 216.9 69.8L217.1 70L219.9 66.7L219.7 66.5C217 64.5 214 63.5 210.6 63.5C204 63.5 201.6 67.7 201.6 71.7C201.6 75.7 205.6 78.4 209.9 79.9C213.1 81 216.2 82.1 216.2 85.1C216.2 88.1 213.3 89.8 210.5 89.8C207.7 89.8 205.5 88.9 203 86.4L202.8 86.2L199.6 89.2L199.8 89.4C202.9 92.4 206.2 93.8 210.4 93.8C217.5 93.8 220.8 89 220.8 84.6C220.8 80.2 215.4 76.9 211.9 75.6L212 75.7Z" fill="#120F29"></path><path d="M228.9 68.1H236.1V93.5H240.6V68.1H247.9V64.1H228.9V68.1Z" fill="#120F29"></path><path d="M270.8 81H278.1V87C276.1 88.9 273.4 89.9 270.5 89.9C263.9 89.9 259.4 85.4 259.4 78.8C259.4 72.2 264.1 67.7 270.5 67.7C276.9 67.7 276.6 69.1 278.7 71.5L278.9 71.7L282.1 69.1L281.9 68.9C278.9 65.5 274.9 63.7 270.5 63.7C261.7 63.7 254.7 70.4 254.7 78.9C254.7 87.4 261.3 94.1 270.5 94.1C279.7 94.1 279.7 92 282.5 88.5V77.1H270.7V81.1L270.8 81Z" fill="#120F29"></path><path d="M307.6 63.6C299.1 63.6 292.5 70.3 292.5 78.8C292.5 87.3 299.1 94 307.6 94C316.1 94 322.7 87.3 322.7 78.8C322.7 70.3 316.1 63.6 307.6 63.6ZM307.6 89.9C301.7 89.9 297.2 85.1 297.2 78.8C297.2 72.5 301.7 67.7 307.6 67.7C313.5 67.7 318 72.5 318 78.8C318 85.1 313.5 89.9 307.6 89.9Z" fill="#120F29"></path><path d="M333.6 93.5H351.4V89.4H338V80.4H351.4V76.3H338V68.1H351.4V64.1H333.6V93.5Z" fill="#120F29"></path><path d="M370.5 64.1H362.4V93.5H370C377.8 93.5 386.2 89.6 386.2 78.7C386.2 67.8 377.7 64.1 370.4 64.1H370.5ZM368 89.4H366.9V68.1H369.7C377.3 68.1 381.5 72 381.5 79C381.5 86 377.2 89.4 368 89.4Z" fill="#120F29"></path><path opacity="0.2" d="M103 80.8L73.7996 73.6C73.7996 73.6 73.7996 73.6 73.7996 73.5C73.7996 72.3 72.9996 71.3 71.7996 71C70.5996 70.7 71.1996 70.7 71.1996 70.3L64.2996 31C64.2996 30.6 64.3996 30.3 64.7996 30.1C65.1996 29.9 65.4996 29.6 65.7996 29.2C66.0996 28.8 66.2996 28.7 66.6996 28.8L93.7996 33.9L93.9996 32.9L66.6996 27.7C66.3996 27.7 66.0996 27.4 65.9996 27.1C65.6996 26 64.6996 25.2 63.4996 25.2C62.2996 25.2 62.4996 25.3 62.0996 25.6C61.6996 25.9 61.3996 25.8 61.1996 25.6L28.3996 3L27.7996 3.8L61.0996 26.9C60.9996 27.2 60.8996 27.5 60.8996 27.9C60.8996 29 61.5996 30 62.5996 30.3C63.5996 30.6 63.0996 30.7 63.0996 31L70.0996 70.5C70.0996 70.8 70.0996 71.2 69.6996 71.4C68.9996 71.9 68.5996 72.6 68.5996 73.5C68.5996 74.4 68.5996 73.8 68.5996 73.9L13.5996 93.8L13.8996 94.7L68.2996 75C68.5996 74.9 68.9996 75 69.1996 75.2C69.6996 75.7 70.2996 76 71.0996 76C71.8996 76 72.6996 75.6 73.0996 75C73.4996 74.4 73.6996 74.6 73.9996 74.7L102.6 81.8L102.8 80.8H103Z" fill="url(#paint0_linear_2321_961)"></path><path d="M103.6 78L95.8 36.8C96.9 36.2 97.7 35 97.7 33.6C97.7 31.6 96.1 30 94.1 30C92.1 30 92.5 30.3 91.9 30.7L63.7 12.2C63.7 11.9 63.8 11.6 63.8 11.3C63.8 9.3 62.2 7.7 60.2 7.7C58.2 7.7 57.9 8.3 57.2 9.3L31.7 3C31.4 1.3 29.9 0 28.2 0C26.5 0 24.6 1.6 24.6 3.6C24.6 5.6 24.9 5.1 25.3 5.7L4.3 39.5C4.1 39.5 3.9 39.5 3.6 39.5C1.6 39.5 0 41.1 0 43.1C0 45.1 1.4 46.4 3.2 46.7L12 91C11 91.6 10.4 92.7 10.4 94C10.4 96 12 97.6 14 97.6C16 97.6 16.1 97.1 16.8 96.3L41.9 102.5C42 102.5 42.1 102.5 42.2 102.6C42.5 104.3 44 105.6 45.7 105.6C47.4 105.6 49.3 104 49.3 102.1L100 83.8C100.7 84.7 101.7 85.2 102.8 85.2C104.8 85.2 106.4 83.6 106.4 81.6C106.4 79.6 105.1 78.4 103.5 78.1L103.6 78ZM36 47.4C35.8 47.4 35.5 47.4 35.2 47.4C34 47.4 33 48 32.3 48.8L7 42.6C7 42 6.7 41.4 6.3 41L27.5 7.2C27.7 7.2 27.9 7.2 28.1 7.2C29.4 7.2 30.6 6.5 31.2 5.4L56.7 11.7C56.7 12.2 56.9 12.7 57.2 13.1L36.1 47.3L36 47.4ZM17.6 93.9C17.6 92.1 16.2 90.7 14.4 90.5L5.6 46.1C6 45.8 6.4 45.4 6.7 45L31.7 51.2C31.8 52.9 33.1 54.3 34.8 54.5L43.7 99.1C43.3 99.4 43 99.7 42.7 100.1L17.5 93.9H17.6ZM48.6 99.7C48 99 47.2 98.5 46.2 98.4L37.3 53.9C38.2 53.3 38.9 52.2 38.9 50.9C38.9 49.6 38.6 49.3 38.2 48.7L59.1 14.7C59.5 14.8 59.8 14.9 60.2 14.9C61 14.9 61.7 14.7 62.2 14.3L90.5 32.9C90.5 33.1 90.5 33.3 90.5 33.6C90.5 35.3 91.7 36.7 93.3 37.1L101.1 78C101.1 78.1 101.1 78.3 101.1 78.4C100.1 79 99.4 80 99.4 81.3C99.4 81.3 99.3 81.3 99.2 81.4L48.6 99.7Z" fill="url(#paint1_linear_2321_961)"></path></g><defs><linearGradient id="paint0_linear_2321_961" x1="13.6996" y1="48.9" x2="103" y2="48.9" gradientUnits="userSpaceOnUse"><stop stop-color="#00D4CF"></stop><stop offset="0.1" stop-color="#00CFD9"></stop><stop offset="0.4" stop-color="#00BFFF"></stop><stop offset="0.8" stop-color="#009EFF"></stop><stop offset="0.9" stop-color="#0089FF"></stop></linearGradient><linearGradient id="paint1_linear_2321_961" x1="-7.5" y1="-3" x2="100.6" y2="114.3" gradientUnits="userSpaceOnUse"><stop stop-color="#00D4CF"></stop><stop offset="0.1" stop-color="#00CFD9"></stop><stop offset="0.4" stop-color="#00BFFF"></stop><stop offset="0.8" stop-color="#009EFF"></stop><stop offset="0.9" stop-color="#0089FF"></stop></linearGradient><clipPath id="clip0_2321_961"><rect width="421.9" height="105.6" fill="white"></rect></clipPath></defs></svg>